PathFileType  4	(X/Y/Z)
DataRate	CameraRate	NumFrames	NumMarkers	Units	OrigDataRate	OrigDataStartFrame	OrigNumFrames
  200.0 	  200.0 	    9 	     40 	mm 	  200.0 	      65 	    515
Frame#	Time	R.Shoulder			R.Clavicle			R.Bicep			R.Elbow			R.Forearm			R.Wrist			L.Shoulder			L.Clavicle			L.Scapula			L.Bicep			L.Elbow			L.Forearm			L.Wrist			R.ASIS			R.PSIS			S2			L.PSIS			L.ASIS			R.TH1			R.TH2			R.TH3			R.Knee			R.SH1			R.SH2			R.SH3			R.SH4			R.Ankle			R.Heel			R.MT5			L.TH1			L.TH2			L.TH3			L.TH4			L.Knee			L.SH1			L.SH2			L.SH3			L.Ankle			L.Heel			L.MT5			
		X1	Y1	Z1	X2	Y2	Z2	X3	Y3	Z3	X4	Y4	Z4	X5	Y5	Z5	X6	Y6	Z6	X7	Y7	Z7	X8	Y8	Z8	X9	Y9	Z9	X10	Y10	Z10	X11	Y11	Z11	X12	Y12	Z12	X13	Y13	Z13	X14	Y14	Z14	X15	Y15	Z15	X16	Y16	Z16	X17	Y17	Z17	X18	Y18	Z18	X19	Y19	Z19	X20	Y20	Z20	X21	Y21	Z21	X22	Y22	Z22	X23	Y23	Z23	X24	Y24	Z24	X25	Y25	Z25	X26	Y26	Z26	X27	Y27	Z27	X28	Y28	Z28	X29	Y29	Z29	X30	Y30	Z30	X31	Y31	Z31	X32	Y32	Z32	X33	Y33	Z33	X34	Y34	Z34	X35	Y35	Z35	X36	Y36	Z36	X37	Y37	Z37	X38	Y38	Z38	X39	Y39	Z39	X40	Y40	Z40	

65	0.32000	-1267.590	1298.441	-19.907	-1197.605	1284.958	-165.973	-1246.882	1070.084	-7.780	-1358.254	1000.715	57.671	-1268.323	900.978	71.144	-1307.584	798.571	126.910	-1212.650	1295.735	-392.252	-1185.384	1280.135	-221.501	-1361.234	1292.723	-311.201	-1138.026	1145.434	-391.155	-1121.694	1016.579	-487.258	-1030.241	1020.633	-422.667	-935.932	960.548	-431.755	-1162.788	871.854	-72.954	-1407.050	903.579	-151.924	-1413.939	899.728	-203.433	-1403.933	913.041	-260.301	-1174.094	852.465	-338.873	-1127.928	684.877	-18.490	-1266.908	619.563	-32.574	-1231.350	554.545	-44.720	-1122.094	452.718	-48.097	-1056.722	332.559	-30.299	-1041.963	261.195	-44.199	-1166.123	318.578	-72.871	-1151.845	244.128	-78.565	-1045.501	70.747	-70.606	-1103.913	40.080	-129.856	-927.214	25.495	-36.437	-1261.477	583.817	-378.638	-1267.720	504.685	-356.105	-1410.379	602.576	-367.888	-1423.676	528.287	-354.188	-1398.128	443.396	-371.476	-1417.605	339.461	-377.924	-1502.393	415.559	-366.140	-1555.632	357.662	-368.708	-1647.391	129.489	-361.085	-1741.471	148.685	-326.951	-1600.553	28.607	-364.188
66	0.32500	-1260.608	1299.201	-18.645	-1190.851	1285.876	-164.677	-1239.240	1070.864	-6.903	-1350.396	1001.021	58.436	-1260.082	901.590	71.624	-1298.829	798.893	127.120	-1205.808	1296.578	-391.299	-1178.315	1281.166	-220.282	-1354.225	1293.383	-309.911	-1132.037	1145.229	-390.468	-1117.990	1015.853	-485.865	-1026.201	1018.571	-421.303	-932.646	957.560	-430.620	-1155.328	873.356	-71.674	-1399.509	904.412	-151.231	-1406.341	900.146	-202.803	-1396.260	913.124	-259.695	-1166.398	852.829	-337.299	-1120.492	686.028	-17.546	-1259.757	621.186	-30.666	-1224.461	555.977	-42.950	-1115.419	453.718	-46.815	-1051.610	332.710	-29.447	-1037.844	261.132	-43.516	-1161.518	320.150	-71.230	-1148.140	245.485	-77.112	-1044.608	70.680	-70.337	-1103.359	40.524	-129.644	-926.587	24.236	-36.185	-1251.908	583.792	-378.329	-1257.400	504.513	-356.257	-1400.818	601.334	-367.187	-1413.612	526.900	-353.839	-1387.348	442.795	-371.818	-1408.358	339.559	-378.773	-1491.551	416.547	-365.457	-1545.889	359.722	-367.994	-1641.250	133.210	-361.113	-1733.900	156.319	-326.525	-1599.068	30.312	-363.966
67	0.33000	-1253.628	1300.061	-17.416	-1184.081	1286.870	-163.413	-1231.596	1071.750	-6.045	-1342.523	1001.421	59.191	-1251.806	902.329	72.097	-1289.956	799.332	127.310	-1198.993	1297.503	-390.387	-1171.255	1282.266	-219.098	-1347.232	1294.116	-308.650	-1126.110	1145.111	-389.875	-1114.413	1015.186	-484.492	-1022.267	1016.495	-419.991	-929.530	954.492	-429.544	-1147.943	874.914	-70.398	-1392.032	905.305	-150.542	-1398.805	900.613	-202.169	-1388.661	913.253	-259.084	-1158.761	853.273	-335.716	-1113.176	687.174	-16.596	-1252.748	622.848	-28.728	-1217.756	557.450	-41.158	-1108.993	454.696	-45.534	-1046.760	332.853	-28.590	-1033.964	261.089	-42.825	-1157.126	321.695	-69.649	-1144.622	246.838	-75.718	-1043.805	70.671	-70.085	-1102.813	40.898	-129.438	-926.018	23.227	-35.912	-1242.223	583.855	-378.096	-1246.924	504.432	-356.502	-1391.148	600.082	-366.557	-1403.389	525.496	-353.569	-1376.339	442.225	-372.229	-1398.810	339.721	-379.646	-1480.401	417.572	-364.788	-1535.806	361.802	-367.271	-1634.679	137.024	-361.119	-1725.769	164.052	-326.078	-1597.260	32.215	-363.716
68	0.33500	-1246.646	1301.013	-16.222	-1177.293	1287.932	-162.184	-1223.950	1072.735	-5.204	-1334.636	1001.913	59.939	-1243.498	903.191	72.563	-1280.969	799.884	127.482	-1192.207	1298.502	-389.516	-1164.209	1283.426	-217.952	-1340.257	1294.916	-307.417	-1120.249	1145.075	-389.372	-1110.957	1014.580	-483.143	-1018.438	1014.409	-418.738	-926.585	951.348	-428.532	-1140.633	876.515	-69.131	-1384.620	906.253	-149.851	-1391.336	901.123	-201.524	-1381.142	913.426	-258.460	-1151.189	853.794	-334.134	-1105.991	688.298	-15.641	-1245.893	624.536	-26.779	-1211.246	558.951	-39.362	-1102.834	455.639	-44.263	-1042.182	332.977	-27.736	-1030.330	261.053	-42.136	-1152.955	323.198	-68.149	-1141.297	248.174	-74.401	-1043.087	70.709	-69.856	-1102.280	41.200	-129.246	-925.507	22.449	-35.627	-1232.437	584.012	-377.942	-1236.308	504.448	-356.839	-1381.381	598.829	-365.996	-1393.020	524.084	-353.372	-1365.113	441.696	-372.703	-1388.964	339.950	-380.536	-1468.954	418.636	-364.138	-1525.389	363.900	-366.542	-1627.674	140.914	-361.099	-1717.089	171.834	-325.613	-1595.081	34.312	-363.436
69	0.34000	-1239.660	1302.050	-15.065	-1170.486	1289.055	-160.996	-1216.307	1073.811	-4.383	-1326.737	1002.491	60.683	-1235.162	904.170	73.025	-1271.869	800.543	127.636	-1185.452	1299.565	-388.688	-1157.179	1284.638	-216.846	-1333.304	1295.781	-306.213	-1114.454	1145.115	-388.958	-1107.616	1014.034	-481.823	-1014.711	1012.316	-417.546	-923.809	948.132	-427.587	-1133.399	878.141	-67.882	-1377.278	907.251	-149.154	-1383.939	901.675	-200.864	-1373.710	913.643	-257.819	-1143.687	854.385	-332.562	-1098.948	689.381	-14.681	-1239.204	626.240	-24.841	-1204.943	560.470	-37.581	-1096.955	456.538	-43.015	-1037.884	333.072	-26.896	-1026.946	261.013	-41.458	-1149.010	324.648	-66.749	-1138.171	249.480	-73.180	-1042.455	70.786	-69.656	-1101.767	41.429	-129.073	-925.054	21.878	-35.336	-1222.567	584.271	-377.864	-1225.567	504.570	-357.260	-1371.530	597.585	-365.501	-1382.517	522.678	-353.244	-1353.685	441.218	-373.233	-1378.824	340.251	-381.432	-1457.224	419.742	-363.512	-1514.648	366.013	-365.812	-1620.232	144.863	-361.051	-1707.880	179.613	-325.131	-1592.480	36.597	-363.124
70	0.34500	-1232.668	1303.165	-13.946	-1163.659	1290.233	-159.851	-1208.671	1074.969	-3.581	-1318.829	1003.150	61.427	-1226.801	905.263	73.482	-1262.658	801.305	127.774	-1178.732	1300.684	-387.901	-1150.168	1285.895	-215.783	-1326.375	1296.704	-305.039	-1108.729	1145.225	-388.629	-1104.385	1013.547	-480.534	-1011.082	1010.217	-416.422	-921.203	944.848	-426.715	-1126.241	879.777	-66.656	-1370.007	908.295	-148.444	-1376.616	902.267	-200.180	-1366.371	913.902	-257.153	-1136.258	855.044	-331.010	-1092.057	690.408	-13.718	-1232.690	627.948	-22.937	-1198.856	561.994	-35.834	-1091.368	457.382	-41.799	-1033.869	333.132	-26.079	-1023.813	260.960	-40.799	-1145.294	326.035	-65.464	-1135.246	250.744	-72.068	-1041.906	70.891	-69.487	-1101.279	41.590	-128.925	-924.658	21.491	-35.047	-1212.628	584.639	-377.862	-1214.719	504.806	-357.761	-1361.609	596.362	-365.068	-1371.891	521.291	-353.174	-1342.071	440.805	-373.811	-1368.396	340.625	-382.324	-1445.226	420.894	-362.915	-1503.595	368.140	-365.088	-1612.353	148.851	-360.970	-1698.167	187.334	-324.633	-1589.407	39.056	-362.778
71	0.35000	-1225.667	1304.350	-12.868	-1156.814	1291.458	-158.754	-1201.042	1076.200	-2.800	-1310.911	1003.884	62.174	-1218.416	906.461	73.934	-1253.340	802.163	127.895	-1172.049	1301.849	-387.157	-1143.179	1287.189	-214.766	-1319.472	1297.683	-303.894	-1103.076	1145.398	-388.380	-1101.256	1013.120	-479.281	-1007.550	1008.114	-415.369	-918.767	941.499	-425.919	-1119.157	881.410	-65.463	-1362.809	909.380	-147.714	-1369.371	902.898	-199.469	-1359.130	914.206	-256.455	-1128.904	855.764	-329.488	-1085.326	691.365	-12.753	-1226.362	629.653	-21.087	-1192.993	563.512	-34.140	-1086.082	458.165	-40.627	-1030.138	333.149	-25.291	-1020.930	260.887	-40.165	-1141.809	327.348	-64.309	-1132.523	251.956	-71.076	-1041.435	71.015	-69.353	-1100.822	41.684	-128.804	-924.318	21.264	-34.768	-1202.635	585.122	-377.933	-1203.781	505.165	-358.331	-1351.628	595.175	-364.692	-1361.155	519.937	-353.156	-1330.288	440.468	-374.429	-1357.687	341.078	-383.200	-1432.979	422.093	-362.351	-1492.243	370.276	-364.374	-1604.039	152.856	-360.851	-1687.977	194.940	-324.119	-1585.813	41.673	-362.397
72	0.35500	-1218.656	1305.597	-11.832	-1149.951	1292.725	-157.709	-1193.426	1077.495	-2.039	-1302.984	1004.689	62.928	-1210.009	907.758	74.380	-1243.917	803.111	128.000	-1165.406	1303.051	-386.455	-1136.214	1288.513	-213.797	-1312.598	1298.711	-302.778	-1097.495	1145.628	-388.207	-1098.225	1012.750	-478.067	-1004.111	1006.008	-414.391	-916.503	938.086	-425.203	-1112.145	883.024	-64.307	-1355.684	910.506	-146.961	-1362.205	903.569	-198.725	-1351.988	914.556	-255.721	-1121.629	856.542	-328.007	-1078.763	692.238	-11.790	-1220.226	631.346	-19.311	-1187.359	565.017	-32.517	-1081.104	458.881	-39.507	-1026.689	333.121	-24.542	-1018.292	260.787	-39.562	-1138.552	328.582	-63.292	-1130.000	253.109	-70.212	-1041.039	71.152	-69.255	-1100.399	41.718	-128.711	-924.031	21.170	-34.504	-1192.604	585.728	-378.072	-1192.769	505.657	-358.963	-1341.600	594.035	-364.367	-1350.319	518.633	-353.176	-1318.352	440.220	-375.078	-1346.708	341.612	-384.051	-1420.504	423.342	-361.823	-1480.611	372.421	-363.675	-1595.295	156.855	-360.691	-1677.346	202.377	-323.588	-1581.649	44.429	-361.977
73	0.36000	-1211.632	1306.897	-10.839	-1143.074	1294.028	-156.720	-1185.823	1078.846	-1.301	-1295.048	1005.559	63.695	-1201.580	909.148	74.816	-1234.394	804.145	128.090	-1158.806	1304.283	-385.797	-1129.275	1289.862	-212.877	-1305.754	1299.787	-301.689	-1091.989	1145.909	-388.103	-1095.284	1012.438	-476.895	-1000.764	1003.900	-413.491	-914.412	934.613	-424.573	-1105.202	884.606	-63.197	-1348.633	911.671	-146.179	-1355.120	904.284	-197.943	-1344.948	914.957	-254.944	-1114.434	857.374	-326.577	-1072.374	693.020	-10.832	-1214.287	633.021	-17.629	-1181.959	566.500	-30.982	-1076.434	459.526	-38.447	-1023.517	333.045	-23.836	-1015.892	260.655	-38.995	-1135.519	329.731	-62.419	-1127.672	254.196	-69.481	-1040.713	71.294	-69.193	-1100.014	41.699	-128.647	-923.795	21.188	-34.258	-1182.550	586.465	-378.273	-1181.699	506.289	-359.644	-1331.535	592.956	-364.086	-1339.397	517.393	-353.226	-1306.282	440.074	-375.747	-1335.469	342.230	-384.867	-1407.822	424.642	-361.337	-1468.716	374.571	-362.997	-1586.129	160.824	-360.486	-1666.310	209.588	-323.039	-1576.870	47.299	-361.516
